<svg width="203" height="31" viewBox="0 0 203 31" fill="none" xmlns="http://www.w3.org/2000/svg">
<path d="M20.0388 10.0194C20.0388 15.553 15.553 20.0388 10.0194 20.0388C4.48584 20.0388 0 15.553 0 10.0194C0 4.48584 4.48584 0 10.0194 0C15.553 0 20.0388 4.48584 20.0388 10.0194Z" fill="white"/>
<path d="M8.81706 15.8307C8.81706 17.0481 7.83018 18.0349 6.61279 18.0349C5.39541 18.0349 4.40852 17.0481 4.40852 15.8307C4.40852 14.6133 5.39541 13.6264 6.61279 13.6264C7.83018 13.6264 8.81706 14.6133 8.81706 15.8307Z" fill="#113848"/>
<path d="M8.81706 4.20814C8.81706 5.42553 7.83018 6.41241 6.61279 6.41241C5.39541 6.41241 4.40852 5.42553 4.40852 4.20814C4.40852 2.99076 5.39541 2.00388 6.61279 2.00388C7.83018 2.00388 8.81706 2.99076 8.81706 4.20814Z" fill="#113848"/>
<path d="M18.2353 10.0194C18.2353 11.2368 17.2484 12.2237 16.031 12.2237C14.8137 12.2237 13.8268 11.2368 13.8268 10.0194C13.8268 8.80201 14.8137 7.81512 16.031 7.81512C17.2484 7.81512 18.2353 8.80201 18.2353 10.0194Z" fill="#113848"/>
<path d="M6.01164 10.0194C6.01164 11.2368 5.02476 12.2237 3.80737 12.2237C2.58999 12.2237 1.6031 11.2368 1.6031 10.0194C1.6031 8.80201 2.58999 7.81512 3.80737 7.81512C5.02476 7.81512 6.01164 8.80201 6.01164 10.0194Z" fill="#113848"/>
<path d="M15.0291 15.8307C15.0291 17.0481 14.0422 18.0349 12.8248 18.0349C11.6075 18.0349 10.6206 17.0481 10.6206 15.8307C10.6206 14.6133 11.6075 13.6264 12.8248 13.6264C14.0422 13.6264 15.0291 14.6133 15.0291 15.8307Z" fill="#113848"/>
<path d="M15.0291 4.20814C15.0291 5.42553 14.0422 6.41241 12.8248 6.41241C11.6075 6.41241 10.6206 5.42553 10.6206 4.20814C10.6206 2.99076 11.6075 2.00388 12.8248 2.00388C14.0422 2.00388 15.0291 2.99076 15.0291 4.20814Z" fill="#113848"/>
<path d="M10.6206 10.1196C10.6206 10.6176 10.2168 11.0214 9.71882 11.0214C9.2208 11.0214 8.81708 10.6176 8.81708 10.1196C8.81708 9.62159 9.2208 9.21786 9.71882 9.21786C10.2168 9.21786 10.6206 9.62159 10.6206 10.1196Z" fill="#113848"/>
<path d="M18.254 17.1182C17.0857 18.8705 15.0899 19.7954 14.2381 20.0388H23V17.1182H18.254Z" fill="white"/>
<path d="M32.1269 28.76H29.6949L29.2469 30H28.4789L30.4949 24.456H31.3349L33.3429 30H32.5749L32.1269 28.76ZM31.9189 28.168L30.9109 25.352L29.9029 28.168H31.9189Z" fill="#3DBCF2"/>
<path d="M39.6055 30H38.8775L35.9495 25.56V30H35.2215V24.416H35.9495L38.8775 28.848V24.416H39.6055V30Z" fill="#3DBCF2"/>
<path d="M43.5825 24.424C44.1905 24.424 44.7158 24.5387 45.1585 24.768C45.6065 24.992 45.9478 25.3147 46.1825 25.736C46.4225 26.1573 46.5425 26.6533 46.5425 27.224C46.5425 27.7947 46.4225 28.2907 46.1825 28.712C45.9478 29.128 45.6065 29.448 45.1585 29.672C44.7158 29.8907 44.1905 30 43.5825 30H41.8465V24.424H43.5825ZM43.5825 29.4C44.3025 29.4 44.8518 29.2107 45.2305 28.832C45.6091 28.448 45.7985 27.912 45.7985 27.224C45.7985 26.5307 45.6065 25.9893 45.2225 25.6C44.8438 25.2107 44.2971 25.016 43.5825 25.016H42.5745V29.4H43.5825Z" fill="#3DBCF2"/>
<path d="M52.4067 24.424L50.5907 27.896V30H49.8627V27.896L48.0387 24.424H48.8467L50.2227 27.248L51.5987 24.424H52.4067Z" fill="#3DBCF2"/>
<path d="M54.2866 24.424H55.0946L54.3266 26.24H53.8146L54.2866 24.424Z" fill="#3DBCF2"/>
<path d="M58.6926 30.056C58.3246 30.056 57.9939 29.992 57.7006 29.864C57.4126 29.7307 57.1859 29.5493 57.0206 29.32C56.8553 29.0853 56.7699 28.816 56.7646 28.512H57.5406C57.5673 28.7733 57.6739 28.9947 57.8606 29.176C58.0526 29.352 58.3299 29.44 58.6926 29.44C59.0393 29.44 59.3113 29.3547 59.5086 29.184C59.7113 29.008 59.8126 28.784 59.8126 28.512C59.8126 28.2987 59.7539 28.1253 59.6366 27.992C59.5193 27.8587 59.3726 27.7573 59.1966 27.688C59.0206 27.6187 58.7833 27.544 58.4846 27.464C58.1166 27.368 57.8206 27.272 57.5966 27.176C57.3779 27.08 57.1886 26.9307 57.0286 26.728C56.8739 26.52 56.7966 26.2427 56.7966 25.896C56.7966 25.592 56.8739 25.3227 57.0286 25.088C57.1833 24.8533 57.3993 24.672 57.6766 24.544C57.9593 24.416 58.2819 24.352 58.6446 24.352C59.1673 24.352 59.5939 24.4827 59.9246 24.744C60.2606 25.0053 60.4499 25.352 60.4926 25.784H59.6926C59.6659 25.5707 59.5539 25.384 59.3566 25.224C59.1593 25.0587 58.8979 24.976 58.5726 24.976C58.2686 24.976 58.0206 25.056 57.8286 25.216C57.6366 25.3707 57.5406 25.5893 57.5406 25.872C57.5406 26.0747 57.5966 26.24 57.7086 26.368C57.8259 26.496 57.9673 26.5947 58.1326 26.664C58.3033 26.728 58.5406 26.8027 58.8446 26.888C59.2126 26.9893 59.5086 27.0907 59.7326 27.192C59.9566 27.288 60.1486 27.44 60.3086 27.648C60.4686 27.8507 60.5486 28.128 60.5486 28.48C60.5486 28.752 60.4766 29.008 60.3326 29.248C60.1886 29.488 59.9753 29.6827 59.6926 29.832C59.4099 29.9813 59.0766 30.056 58.6926 30.056Z" fill="#3DBCF2"/>
<path d="M71.4087 24.464V30H70.6807V25.872L68.8407 30H68.3287L66.4807 25.864V30H65.7527V24.464H66.5367L68.5847 29.04L70.6327 24.464H71.4087Z" fill="#3DBCF2"/>
<path d="M76.1714 30.056C75.654 30.056 75.182 29.936 74.7554 29.696C74.3287 29.4507 73.99 29.112 73.7394 28.68C73.494 28.2427 73.3714 27.752 73.3714 27.208C73.3714 26.664 73.494 26.176 73.7394 25.744C73.99 25.3067 74.3287 24.968 74.7554 24.728C75.182 24.4827 75.654 24.36 76.1714 24.36C76.694 24.36 77.1687 24.4827 77.5954 24.728C78.022 24.968 78.358 25.304 78.6034 25.736C78.8487 26.168 78.9714 26.6587 78.9714 27.208C78.9714 27.7573 78.8487 28.248 78.6034 28.68C78.358 29.112 78.022 29.4507 77.5954 29.696C77.1687 29.936 76.694 30.056 76.1714 30.056ZM76.1714 29.424C76.5607 29.424 76.91 29.3333 77.2194 29.152C77.534 28.9707 77.7794 28.712 77.9554 28.376C78.1367 28.04 78.2274 27.6507 78.2274 27.208C78.2274 26.76 78.1367 26.3707 77.9554 26.04C77.7794 25.704 77.5367 25.4453 77.2274 25.264C76.918 25.0827 76.566 24.992 76.1714 24.992C75.7767 24.992 75.4247 25.0827 75.1154 25.264C74.806 25.4453 74.5607 25.704 74.3794 26.04C74.2034 26.3707 74.1154 26.76 74.1154 27.208C74.1154 27.6507 74.2034 28.04 74.3794 28.376C74.5607 28.712 74.806 28.9707 75.1154 29.152C75.43 29.3333 75.782 29.424 76.1714 29.424Z" fill="#3DBCF2"/>
<path d="M85.5404 24.424L83.4364 30H82.5964L80.4924 24.424H81.2684L83.0204 29.232L84.7724 24.424H85.5404Z" fill="#3DBCF2"/>
<path d="M88.0667 24.424V30H87.3387V24.424H88.0667Z" fill="#3DBCF2"/>
<path d="M91.0354 25.016V26.88H93.0674V27.48H91.0354V29.4H93.3074V30H90.3074V24.416H93.3074V25.016H91.0354Z" fill="#3DBCF2"/>
<path d="M100.278 24.424C100.886 24.424 101.411 24.5387 101.854 24.768C102.302 24.992 102.643 25.3147 102.878 25.736C103.118 26.1573 103.238 26.6533 103.238 27.224C103.238 27.7947 103.118 28.2907 102.878 28.712C102.643 29.128 102.302 29.448 101.854 29.672C101.411 29.8907 100.886 30 100.278 30H98.5418V24.424H100.278ZM100.278 29.4C100.998 29.4 101.547 29.2107 101.926 28.832C102.304 28.448 102.494 27.912 102.494 27.224C102.494 26.5307 102.302 25.9893 101.918 25.6C101.539 25.2107 100.992 25.016 100.278 25.016H99.2698V29.4H100.278Z" fill="#3DBCF2"/>
<path d="M108.494 28.76H106.062L105.614 30H104.846L106.862 24.456H107.702L109.71 30H108.942L108.494 28.76ZM108.286 28.168L107.278 25.352L106.27 28.168H108.286Z" fill="#3DBCF2"/>
<path d="M115.021 24.424V25.016H113.501V30H112.773V25.016H111.245V24.424H115.021Z" fill="#3DBCF2"/>
<path d="M120.213 28.76H117.781L117.333 30H116.565L118.581 24.456H119.421L121.429 30H120.661L120.213 28.76ZM120.005 28.168L118.997 25.352L117.989 28.168H120.005Z" fill="#3DBCF2"/>
<path d="M126.099 27.128C126.302 27.16 126.486 27.2427 126.651 27.376C126.822 27.5093 126.955 27.6747 127.051 27.872C127.153 28.0693 127.203 28.28 127.203 28.504C127.203 28.7867 127.131 29.0427 126.987 29.272C126.843 29.496 126.633 29.6747 126.355 29.808C126.083 29.936 125.761 30 125.387 30H123.307V24.424H125.307C125.686 24.424 126.009 24.488 126.275 24.616C126.542 24.7387 126.742 24.9067 126.875 25.12C127.009 25.3333 127.075 25.5733 127.075 25.84C127.075 26.1707 126.985 26.4453 126.803 26.664C126.627 26.8773 126.393 27.032 126.099 27.128ZM124.035 26.832H125.259C125.601 26.832 125.865 26.752 126.051 26.592C126.238 26.432 126.331 26.2107 126.331 25.928C126.331 25.6453 126.238 25.424 126.051 25.264C125.865 25.104 125.595 25.024 125.243 25.024H124.035V26.832ZM125.323 29.4C125.686 29.4 125.969 29.3147 126.171 29.144C126.374 28.9733 126.475 28.736 126.475 28.432C126.475 28.1227 126.369 27.88 126.155 27.704C125.942 27.5227 125.657 27.432 125.299 27.432H124.035V29.4H125.323Z" fill="#3DBCF2"/>
<path d="M132.51 28.76H130.078L129.63 30H128.862L130.878 24.456H131.718L133.726 30H132.958L132.51 28.76ZM132.302 28.168L131.294 25.352L130.286 28.168H132.302Z" fill="#3DBCF2"/>
<path d="M137.372 30.056C137.004 30.056 136.674 29.992 136.38 29.864C136.092 29.7307 135.866 29.5493 135.7 29.32C135.535 29.0853 135.45 28.816 135.444 28.512H136.22C136.247 28.7733 136.354 28.9947 136.54 29.176C136.732 29.352 137.01 29.44 137.372 29.44C137.719 29.44 137.991 29.3547 138.188 29.184C138.391 29.008 138.492 28.784 138.492 28.512C138.492 28.2987 138.434 28.1253 138.316 27.992C138.199 27.8587 138.052 27.7573 137.876 27.688C137.7 27.6187 137.463 27.544 137.164 27.464C136.796 27.368 136.5 27.272 136.276 27.176C136.058 27.08 135.868 26.9307 135.708 26.728C135.554 26.52 135.476 26.2427 135.476 25.896C135.476 25.592 135.554 25.3227 135.708 25.088C135.863 24.8533 136.079 24.672 136.356 24.544C136.639 24.416 136.962 24.352 137.324 24.352C137.847 24.352 138.274 24.4827 138.604 24.744C138.94 25.0053 139.13 25.352 139.172 25.784H138.372C138.346 25.5707 138.234 25.384 138.036 25.224C137.839 25.0587 137.578 24.976 137.252 24.976C136.948 24.976 136.7 25.056 136.508 25.216C136.316 25.3707 136.22 25.5893 136.22 25.872C136.22 26.0747 136.276 26.24 136.388 26.368C136.506 26.496 136.647 26.5947 136.812 26.664C136.983 26.728 137.22 26.8027 137.524 26.888C137.892 26.9893 138.188 27.0907 138.412 27.192C138.636 27.288 138.828 27.44 138.988 27.648C139.148 27.8507 139.228 28.128 139.228 28.48C139.228 28.752 139.156 29.008 139.012 29.248C138.868 29.488 138.655 29.6827 138.372 29.832C138.09 29.9813 137.756 30.056 137.372 30.056Z" fill="#3DBCF2"/>
<path d="M142.028 25.016V26.88H144.06V27.48H142.028V29.4H144.3V30H141.3V24.416H144.3V25.016H142.028Z" fill="#3DBCF2"/>
<path d="M47.6232 2.45001V20H43.3482V9.47501L39.4232 20H35.9732L32.0232 9.45001V20H27.7482V2.45001H32.7982L37.7232 14.6L42.5982 2.45001H47.6232Z" fill="white"/>
<path d="M59.9975 20.175C58.3475 20.175 56.8308 19.7917 55.4475 19.025C54.0808 18.2583 52.9891 17.1917 52.1725 15.825C51.3725 14.4417 50.9725 12.8917 50.9725 11.175C50.9725 9.45834 51.3725 7.91668 52.1725 6.55001C52.9891 5.18335 54.0808 4.11668 55.4475 3.35001C56.8308 2.58335 58.3475 2.20001 59.9975 2.20001C61.6475 2.20001 63.1558 2.58335 64.5225 3.35001C65.9058 4.11668 66.9891 5.18335 67.7725 6.55001C68.5725 7.91668 68.9725 9.45834 68.9725 11.175C68.9725 12.8917 68.5725 14.4417 67.7725 15.825C66.9725 17.1917 65.8891 18.2583 64.5225 19.025C63.1558 19.7917 61.6475 20.175 59.9975 20.175ZM59.9975 16.275C61.3975 16.275 62.5141 15.8083 63.3475 14.875C64.1975 13.9417 64.6225 12.7083 64.6225 11.175C64.6225 9.62501 64.1975 8.39168 63.3475 7.47501C62.5141 6.54168 61.3975 6.07501 59.9975 6.07501C58.5808 6.07501 57.4475 6.53334 56.5975 7.45001C55.7641 8.36668 55.3475 9.60834 55.3475 11.175C55.3475 12.725 55.7641 13.9667 56.5975 14.9C57.4475 15.8167 58.5808 16.275 59.9975 16.275Z" fill="white"/>
<path d="M88.8258 2.45001L82.6008 20H77.2508L71.0258 2.45001H75.5758L79.9258 15.7L84.3008 2.45001H88.8258Z" fill="white"/>
<path d="M95.8875 2.45001V20H91.6125V2.45001H95.8875Z" fill="white"/>
<path d="M104.261 5.87501V9.42501H109.986V12.725H104.261V16.575H110.736V20H99.9855V2.45001H110.736V5.87501H104.261Z" fill="white"/>
<path d="M134.386 2.45001V20H130.111V9.47501L126.186 20H122.736L118.786 9.45001V20H114.511V2.45001H119.561L124.486 14.6L129.361 2.45001H134.386Z" fill="white"/>
<path d="M149.385 16.9H142.835L141.785 20H137.31L143.66 2.45001H148.61L154.96 20H150.435L149.385 16.9ZM148.285 13.6L146.11 7.17501L143.96 13.6H148.285Z" fill="white"/>
<path d="M169.543 8.00001C169.226 7.41668 168.768 6.97501 168.168 6.67501C167.584 6.35834 166.893 6.20001 166.093 6.20001C164.709 6.20001 163.601 6.65834 162.768 7.57501C161.934 8.47501 161.518 9.68334 161.518 11.2C161.518 12.8167 161.951 14.0833 162.818 15C163.701 15.9 164.909 16.35 166.443 16.35C167.493 16.35 168.376 16.0833 169.093 15.55C169.826 15.0167 170.359 14.25 170.693 13.25H165.268V10.1H174.568V14.075C174.251 15.1417 173.709 16.1333 172.943 17.05C172.193 17.9667 171.234 18.7083 170.068 19.275C168.901 19.8417 167.584 20.125 166.118 20.125C164.384 20.125 162.834 19.75 161.468 19C160.118 18.2333 159.059 17.175 158.293 15.825C157.543 14.475 157.168 12.9333 157.168 11.2C157.168 9.46668 157.543 7.92501 158.293 6.57501C159.059 5.20835 160.118 4.15001 161.468 3.40001C162.818 2.63335 164.359 2.25001 166.093 2.25001C168.193 2.25001 169.959 2.75834 171.393 3.77501C172.843 4.79168 173.801 6.20001 174.268 8.00001H169.543Z" fill="white"/>
<path d="M182.211 2.45001V20H177.936V2.45001H182.211Z" fill="white"/>
<path d="M185.584 11.2C185.584 9.46668 185.959 7.92501 186.709 6.57501C187.459 5.20835 188.5 4.15001 189.834 3.40001C191.184 2.63335 192.709 2.25001 194.409 2.25001C196.492 2.25001 198.275 2.80001 199.759 3.90001C201.242 5.00001 202.234 6.50001 202.734 8.40001H198.034C197.684 7.66668 197.184 7.10835 196.534 6.72501C195.9 6.34168 195.175 6.15001 194.359 6.15001C193.042 6.15001 191.975 6.60835 191.159 7.52501C190.342 8.44168 189.934 9.66668 189.934 11.2C189.934 12.7333 190.342 13.9583 191.159 14.875C191.975 15.7917 193.042 16.25 194.359 16.25C195.175 16.25 195.9 16.0583 196.534 15.675C197.184 15.2917 197.684 14.7333 198.034 14H202.734C202.234 15.9 201.242 17.4 199.759 18.5C198.275 19.5833 196.492 20.125 194.409 20.125C192.709 20.125 191.184 19.75 189.834 19C188.5 18.2333 187.459 17.175 186.709 15.825C185.959 14.475 185.584 12.9333 185.584 11.2Z" fill="white"/>
</svg>