<svg width="204" height="41" viewBox="0 0 204 41" fill="none" xmlns="http://www.w3.org/2000/svg">
<circle cx="10.0194" cy="18.0194" r="10.0194" fill="white"/>
<circle cx="6.61279" cy="23.8307" r="2.20427" fill="#113848"/>
<circle cx="6.61279" cy="12.2081" r="2.20427" fill="#113848"/>
<circle cx="16.0311" cy="18.0194" r="2.20427" fill="#113848"/>
<circle cx="3.80737" cy="18.0194" r="2.20427" fill="#113848"/>
<circle cx="12.8248" cy="23.8307" r="2.20427" fill="#113848"/>
<circle cx="12.8248" cy="12.2081" r="2.20427" fill="#113848"/>
<circle cx="9.71882" cy="18.1196" r="0.901746" fill="#113848"/>
<path d="M18.254 25.1182C17.0857 26.8705 15.0899 27.7954 14.2381 28.0388H23V25.1182H18.254Z" fill="white"/>
<path d="M32.1268 36.76H29.6948L29.2468 38H28.4788L30.4948 32.456H31.3348L33.3428 38H32.5748L32.1268 36.76ZM31.9188 36.168L30.9108 33.352L29.9028 36.168H31.9188ZM39.6055 38H38.8775L35.9495 33.56V38H35.2215V32.416H35.9495L38.8775 36.848V32.416H39.6055V38ZM43.5825 32.424C44.1905 32.424 44.7158 32.5387 45.1585 32.768C45.6065 32.992 45.9478 33.3147 46.1825 33.736C46.4225 34.1573 46.5425 34.6533 46.5425 35.224C46.5425 35.7947 46.4225 36.2907 46.1825 36.712C45.9478 37.128 45.6065 37.448 45.1585 37.672C44.7158 37.8907 44.1905 38 43.5825 38H41.8465V32.424H43.5825ZM43.5825 37.4C44.3025 37.4 44.8518 37.2107 45.2305 36.832C45.6091 36.448 45.7985 35.912 45.7985 35.224C45.7985 34.5307 45.6065 33.9893 45.2225 33.6C44.8438 33.2107 44.2971 33.016 43.5825 33.016H42.5745V37.4H43.5825ZM52.4067 32.424L50.5907 35.896V38H49.8627V35.896L48.0387 32.424H48.8467L50.2227 35.248L51.5987 32.424H52.4067ZM54.2866 32.424H55.0946L54.3266 34.24H53.8146L54.2866 32.424ZM58.6926 38.056C58.3246 38.056 57.9939 37.992 57.7006 37.864C57.4126 37.7307 57.1859 37.5493 57.0206 37.32C56.8553 37.0853 56.7699 36.816 56.7646 36.512H57.5406C57.5673 36.7733 57.6739 36.9947 57.8606 37.176C58.0526 37.352 58.3299 37.44 58.6926 37.44C59.0393 37.44 59.3113 37.3547 59.5086 37.184C59.7113 37.008 59.8126 36.784 59.8126 36.512C59.8126 36.2987 59.7539 36.1253 59.6366 35.992C59.5193 35.8587 59.3726 35.7573 59.1966 35.688C59.0206 35.6187 58.7833 35.544 58.4846 35.464C58.1166 35.368 57.8206 35.272 57.5966 35.176C57.3779 35.08 57.1886 34.9307 57.0286 34.728C56.8739 34.52 56.7966 34.2427 56.7966 33.896C56.7966 33.592 56.8739 33.3227 57.0286 33.088C57.1833 32.8533 57.3993 32.672 57.6766 32.544C57.9593 32.416 58.2819 32.352 58.6446 32.352C59.1673 32.352 59.5939 32.4827 59.9246 32.744C60.2606 33.0053 60.4499 33.352 60.4926 33.784H59.6926C59.6659 33.5707 59.5539 33.384 59.3566 33.224C59.1593 33.0587 58.8979 32.976 58.5726 32.976C58.2686 32.976 58.0206 33.056 57.8286 33.216C57.6366 33.3707 57.5406 33.5893 57.5406 33.872C57.5406 34.0747 57.5966 34.24 57.7086 34.368C57.8259 34.496 57.9673 34.5947 58.1326 34.664C58.3033 34.728 58.5406 34.8027 58.8446 34.888C59.2126 34.9893 59.5086 35.0907 59.7326 35.192C59.9566 35.288 60.1486 35.44 60.3086 35.648C60.4686 35.8507 60.5486 36.128 60.5486 36.48C60.5486 36.752 60.4766 37.008 60.3326 37.248C60.1886 37.488 59.9753 37.6827 59.6926 37.832C59.4099 37.9813 59.0766 38.056 58.6926 38.056ZM71.4087 32.464V38H70.6807V33.872L68.8407 38H68.3287L66.4807 33.864V38H65.7527V32.464H66.5367L68.5847 37.04L70.6327 32.464H71.4087ZM76.1713 38.056C75.654 38.056 75.182 37.936 74.7553 37.696C74.3287 37.4507 73.99 37.112 73.7393 36.68C73.494 36.2427 73.3713 35.752 73.3713 35.208C73.3713 34.664 73.494 34.176 73.7393 33.744C73.99 33.3067 74.3287 32.968 74.7553 32.728C75.182 32.4827 75.654 32.36 76.1713 32.36C76.694 32.36 77.1687 32.4827 77.5953 32.728C78.022 32.968 78.358 33.304 78.6033 33.736C78.8487 34.168 78.9713 34.6587 78.9713 35.208C78.9713 35.7573 78.8487 36.248 78.6033 36.68C78.358 37.112 78.022 37.4507 77.5953 37.696C77.1687 37.936 76.694 38.056 76.1713 38.056ZM76.1713 37.424C76.5607 37.424 76.91 37.3333 77.2193 37.152C77.534 36.9707 77.7793 36.712 77.9553 36.376C78.1367 36.04 78.2273 35.6507 78.2273 35.208C78.2273 34.76 78.1367 34.3707 77.9553 34.04C77.7793 33.704 77.5367 33.4453 77.2273 33.264C76.918 33.0827 76.566 32.992 76.1713 32.992C75.7767 32.992 75.4247 33.0827 75.1153 33.264C74.806 33.4453 74.5607 33.704 74.3793 34.04C74.2033 34.3707 74.1153 34.76 74.1153 35.208C74.1153 35.6507 74.2033 36.04 74.3793 36.376C74.5607 36.712 74.806 36.9707 75.1153 37.152C75.43 37.3333 75.782 37.424 76.1713 37.424ZM85.5404 32.424L83.4364 38H82.5964L80.4924 32.424H81.2684L83.0204 37.232L84.7724 32.424H85.5404ZM88.0667 32.424V38H87.3387V32.424H88.0667ZM91.0354 33.016V34.88H93.0674V35.48H91.0354V37.4H93.3074V38H90.3074V32.416H93.3074V33.016H91.0354ZM100.278 32.424C100.886 32.424 101.411 32.5387 101.854 32.768C102.302 32.992 102.643 33.3147 102.878 33.736C103.118 34.1573 103.238 34.6533 103.238 35.224C103.238 35.7947 103.118 36.2907 102.878 36.712C102.643 37.128 102.302 37.448 101.854 37.672C101.411 37.8907 100.886 38 100.278 38H98.5418V32.424H100.278ZM100.278 37.4C100.998 37.4 101.547 37.2107 101.926 36.832C102.304 36.448 102.494 35.912 102.494 35.224C102.494 34.5307 102.302 33.9893 101.918 33.6C101.539 33.2107 100.992 33.016 100.278 33.016H99.2698V37.4H100.278ZM108.494 36.76H106.062L105.614 38H104.846L106.862 32.456H107.702L109.71 38H108.942L108.494 36.76ZM108.286 36.168L107.278 33.352L106.27 36.168H108.286ZM115.021 32.424V33.016H113.501V38H112.773V33.016H111.245V32.424H115.021ZM120.213 36.76H117.781L117.333 38H116.565L118.581 32.456H119.421L121.429 38H120.661L120.213 36.76ZM120.005 36.168L118.997 33.352L117.989 36.168H120.005ZM126.099 35.128C126.302 35.16 126.486 35.2427 126.651 35.376C126.822 35.5093 126.955 35.6747 127.051 35.872C127.153 36.0693 127.203 36.28 127.203 36.504C127.203 36.7867 127.131 37.0427 126.987 37.272C126.843 37.496 126.633 37.6747 126.355 37.808C126.083 37.936 125.761 38 125.387 38H123.307V32.424H125.307C125.686 32.424 126.009 32.488 126.275 32.616C126.542 32.7387 126.742 32.9067 126.875 33.12C127.009 33.3333 127.075 33.5733 127.075 33.84C127.075 34.1707 126.985 34.4453 126.803 34.664C126.627 34.8773 126.393 35.032 126.099 35.128ZM124.035 34.832H125.259C125.601 34.832 125.865 34.752 126.051 34.592C126.238 34.432 126.331 34.2107 126.331 33.928C126.331 33.6453 126.238 33.424 126.051 33.264C125.865 33.104 125.595 33.024 125.243 33.024H124.035V34.832ZM125.323 37.4C125.686 37.4 125.969 37.3147 126.171 37.144C126.374 36.9733 126.475 36.736 126.475 36.432C126.475 36.1227 126.369 35.88 126.155 35.704C125.942 35.5227 125.657 35.432 125.299 35.432H124.035V37.4H125.323ZM132.51 36.76H130.078L129.63 38H128.862L130.878 32.456H131.718L133.726 38H132.958L132.51 36.76ZM132.302 36.168L131.294 33.352L130.286 36.168H132.302ZM137.372 38.056C137.004 38.056 136.674 37.992 136.38 37.864C136.092 37.7307 135.866 37.5493 135.7 37.32C135.535 37.0853 135.45 36.816 135.444 36.512H136.22C136.247 36.7733 136.354 36.9947 136.54 37.176C136.732 37.352 137.01 37.44 137.372 37.44C137.719 37.44 137.991 37.3547 138.188 37.184C138.391 37.008 138.492 36.784 138.492 36.512C138.492 36.2987 138.434 36.1253 138.316 35.992C138.199 35.8587 138.052 35.7573 137.876 35.688C137.7 35.6187 137.463 35.544 137.164 35.464C136.796 35.368 136.5 35.272 136.276 35.176C136.058 35.08 135.868 34.9307 135.708 34.728C135.554 34.52 135.476 34.2427 135.476 33.896C135.476 33.592 135.554 33.3227 135.708 33.088C135.863 32.8533 136.079 32.672 136.356 32.544C136.639 32.416 136.962 32.352 137.324 32.352C137.847 32.352 138.274 32.4827 138.604 32.744C138.94 33.0053 139.13 33.352 139.172 33.784H138.372C138.346 33.5707 138.234 33.384 138.036 33.224C137.839 33.0587 137.578 32.976 137.252 32.976C136.948 32.976 136.7 33.056 136.508 33.216C136.316 33.3707 136.22 33.5893 136.22 33.872C136.22 34.0747 136.276 34.24 136.388 34.368C136.506 34.496 136.647 34.5947 136.812 34.664C136.983 34.728 137.22 34.8027 137.524 34.888C137.892 34.9893 138.188 35.0907 138.412 35.192C138.636 35.288 138.828 35.44 138.988 35.648C139.148 35.8507 139.228 36.128 139.228 36.48C139.228 36.752 139.156 37.008 139.012 37.248C138.868 37.488 138.655 37.6827 138.372 37.832C138.09 37.9813 137.756 38.056 137.372 38.056ZM142.028 33.016V34.88H144.06V35.48H142.028V37.4H144.3V38H141.3V32.416H144.3V33.016H142.028Z" fill="#3DBCF2"/>
<path d="M47.6232 10.45V28H43.3482V17.475L39.4232 28H35.9732L32.0232 17.45V28H27.7482V10.45H32.7982L37.7232 22.6L42.5982 10.45H47.6232ZM59.9975 28.175C58.3475 28.175 56.8308 27.7917 55.4475 27.025C54.0808 26.2583 52.9891 25.1917 52.1725 23.825C51.3725 22.4417 50.9725 20.8917 50.9725 19.175C50.9725 17.4583 51.3725 15.9167 52.1725 14.55C52.9891 13.1833 54.0808 12.1167 55.4475 11.35C56.8308 10.5833 58.3475 10.2 59.9975 10.2C61.6475 10.2 63.1558 10.5833 64.5225 11.35C65.9058 12.1167 66.9891 13.1833 67.7725 14.55C68.5725 15.9167 68.9725 17.4583 68.9725 19.175C68.9725 20.8917 68.5725 22.4417 67.7725 23.825C66.9725 25.1917 65.8891 26.2583 64.5225 27.025C63.1558 27.7917 61.6475 28.175 59.9975 28.175ZM59.9975 24.275C61.3975 24.275 62.5141 23.8083 63.3475 22.875C64.1975 21.9417 64.6225 20.7083 64.6225 19.175C64.6225 17.625 64.1975 16.3917 63.3475 15.475C62.5141 14.5417 61.3975 14.075 59.9975 14.075C58.5808 14.075 57.4475 14.5333 56.5975 15.45C55.7641 16.3667 55.3475 17.6083 55.3475 19.175C55.3475 20.725 55.7641 21.9667 56.5975 22.9C57.4475 23.8167 58.5808 24.275 59.9975 24.275ZM88.8258 10.45L82.6008 28H77.2508L71.0258 10.45H75.5758L79.9258 23.7L84.3008 10.45H88.8258ZM95.8875 10.45V28H91.6125V10.45H95.8875ZM104.261 13.875V17.425H109.986V20.725H104.261V24.575H110.736V28H99.9855V10.45H110.736V13.875H104.261Z" fill="white"/>
<path d="M134.386 10.45V28H130.111V17.475L126.186 28H122.736L118.786 17.45V28H114.511V10.45H119.561L124.486 22.6L129.361 10.45H134.386ZM149.385 24.9H142.835L141.785 28H137.31L143.66 10.45H148.61L154.96 28H150.435L149.385 24.9ZM148.285 21.6L146.11 15.175L143.96 21.6H148.285ZM169.543 16C169.226 15.4167 168.768 14.975 168.168 14.675C167.584 14.3583 166.893 14.2 166.093 14.2C164.709 14.2 163.601 14.6583 162.768 15.575C161.934 16.475 161.518 17.6833 161.518 19.2C161.518 20.8167 161.951 22.0833 162.818 23C163.701 23.9 164.909 24.35 166.443 24.35C167.493 24.35 168.376 24.0833 169.093 23.55C169.826 23.0167 170.359 22.25 170.693 21.25H165.268V18.1H174.568V22.075C174.251 23.1417 173.709 24.1333 172.943 25.05C172.193 25.9667 171.234 26.7083 170.068 27.275C168.901 27.8417 167.584 28.125 166.118 28.125C164.384 28.125 162.834 27.75 161.468 27C160.118 26.2333 159.059 25.175 158.293 23.825C157.543 22.475 157.168 20.9333 157.168 19.2C157.168 17.4667 157.543 15.925 158.293 14.575C159.059 13.2083 160.118 12.15 161.468 11.4C162.818 10.6333 164.359 10.25 166.093 10.25C168.193 10.25 169.959 10.7583 171.393 11.775C172.843 12.7917 173.801 14.2 174.268 16H169.543ZM182.211 10.45V28H177.936V10.45H182.211ZM185.584 19.2C185.584 17.4667 185.959 15.925 186.709 14.575C187.459 13.2083 188.5 12.15 189.834 11.4C191.184 10.6333 192.709 10.25 194.409 10.25C196.492 10.25 198.275 10.8 199.759 11.9C201.242 13 202.234 14.5 202.734 16.4H198.034C197.684 15.6667 197.184 15.1083 196.534 14.725C195.9 14.3417 195.175 14.15 194.359 14.15C193.042 14.15 191.975 14.6083 191.159 15.525C190.342 16.4417 189.934 17.6667 189.934 19.2C189.934 20.7333 190.342 21.9583 191.159 22.875C191.975 23.7917 193.042 24.25 194.359 24.25C195.175 24.25 195.9 24.0583 196.534 23.675C197.184 23.2917 197.684 22.7333 198.034 22H202.734C202.234 23.9 201.242 25.4 199.759 26.5C198.275 27.5833 196.492 28.125 194.409 28.125C192.709 28.125 191.184 27.75 189.834 27C188.5 26.2333 187.459 25.175 186.709 23.825C185.959 22.475 185.584 20.9333 185.584 19.2Z" fill="#3DBCF2"/>
</svg>
